<svg width="24" height="24" viewBox="0 0 24 24" fill="none" xmlns="http://www.w3.org/2000/svg">
<path d="M15.3998 9.87982L10.8098 5.28982C10.6224 5.10356 10.369 4.99902 10.1048 4.99902C9.84062 4.99902 9.58716 5.10356 9.3998 5.28982C9.30607 5.38278 9.23168 5.49338 9.18091 5.61524C9.13014 5.7371 9.104 5.8678 9.104 5.99982C9.104 6.13183 9.13014 6.26253 9.18091 6.38439C9.23168 6.50625 9.30607 6.61685 9.3998 6.70982L13.9998 11.2898C14.0935 11.3828 14.1679 11.4934 14.2187 11.6152C14.2695 11.7371 14.2956 11.8678 14.2956 11.9998C14.2956 12.1318 14.2695 12.2625 14.2187 12.3844C14.1679 12.5063 14.0935 12.6169 13.9998 12.7098L9.3998 17.2898C9.2115 17.4768 9.10518 17.7309 9.10425 17.9963C9.10331 18.2616 9.20783 18.5165 9.3948 18.7048C9.58178 18.8931 9.8359 18.9994 10.1013 19.0004C10.3666 19.0013 10.6215 18.8968 10.8098 18.7098L15.3998 14.1198C15.9616 13.5573 16.2772 12.7948 16.2772 11.9998C16.2772 11.2048 15.9616 10.4423 15.3998 9.87982Z" fill="#1D1D1D"/>
</svg>
