<svg width="24" height="24" viewBox="0 0 24 24" fill="none" xmlns="http://www.w3.org/2000/svg">
<path d="M18.7099 8.2101C18.6169 8.11638 18.5063 8.04198 18.3845 7.99121C18.2626 7.94044 18.1319 7.91431 17.9999 7.91431C17.8679 7.91431 17.7372 7.94044 17.6153 7.99121C17.4934 8.04198 17.3828 8.11638 17.2899 8.2101L12.7099 12.7901C12.6169 12.8838 12.5063 12.9582 12.3845 13.009C12.2626 13.0598 12.1319 13.0859 11.9999 13.0859C11.8679 13.0859 11.7372 13.0598 11.6153 13.009C11.4934 12.9582 11.3828 12.8838 11.2899 12.7901L6.70988 8.2101C6.61691 8.11638 6.50631 8.04198 6.38445 7.99121C6.26259 7.94044 6.13189 7.91431 5.99988 7.91431C5.86787 7.91431 5.73716 7.94044 5.6153 7.99121C5.49344 8.04198 5.38284 8.11638 5.28988 8.2101C5.10363 8.39747 4.99908 8.65092 4.99908 8.9151C4.99908 9.17929 5.10363 9.43274 5.28988 9.6201L9.87988 14.2101C10.4424 14.7719 11.2049 15.0875 11.9999 15.0875C12.7949 15.0875 13.5574 14.7719 14.1199 14.2101L18.7099 9.6201C18.8961 9.43274 19.0007 9.17929 19.0007 8.9151C19.0007 8.65092 18.8961 8.39747 18.7099 8.2101Z" fill="#374957"/>
</svg>
