<svg width="19" height="18" viewBox="0 0 19 18" fill="none" xmlns="http://www.w3.org/2000/svg">
<g clip-path="url(#clip0_112_709)">
<path d="M17.856 10.2465L16.3518 5.11951C15.9109 3.61751 14.9527 2.29823 13.6295 1.37136C12.3063 0.444502 10.6941 -0.0367482 9.04904 0.00411186C7.404 0.0449719 5.82058 0.605597 4.55048 1.59687C3.28037 2.58815 2.39646 3.95319 2.03926 5.47501L0.874716 10.4363C0.746083 10.9845 0.749057 11.553 0.883419 12.1C1.01778 12.647 1.2801 13.1584 1.65101 13.5964C2.02192 14.0345 2.49195 14.388 3.0264 14.631C3.56084 14.8739 4.14606 15 4.73884 15H5.62076C5.80246 15.8477 6.28792 16.6099 6.99489 17.1573C7.70186 17.7047 8.58685 18.0038 9.49992 18.0038C10.413 18.0038 11.298 17.7047 12.005 17.1573C12.7119 16.6099 13.1974 15.8477 13.3791 15H14.0425C14.6527 15.0001 15.2547 14.8664 15.8014 14.6096C16.3481 14.3527 16.8247 13.9796 17.194 13.5194C17.5633 13.0592 17.8153 12.5243 17.9302 11.9565C18.0452 11.3888 18.0201 10.8035 17.8568 10.2465H17.856ZM9.49992 16.5C9.01047 16.4981 8.53359 16.3529 8.13454 16.0844C7.73548 15.8159 7.43374 15.4372 7.27059 15H11.7293C11.5661 15.4372 11.2644 15.8159 10.8653 16.0844C10.4663 16.3529 9.98938 16.4981 9.49992 16.5V16.5ZM15.933 12.6113C15.7124 12.8885 15.4266 13.1132 15.0983 13.2675C14.77 13.4218 14.4082 13.5014 14.0417 13.5H4.73884C4.38321 13.5 4.03214 13.4242 3.71153 13.2784C3.39092 13.1327 3.10896 12.9205 2.88647 12.6577C2.66398 12.3949 2.50663 12.088 2.42604 11.7599C2.34544 11.4318 2.34367 11.0906 2.42084 10.7618L3.58459 5.79976C3.86512 4.60442 4.55938 3.53222 5.55699 2.7536C6.55461 1.97498 7.79834 1.53464 9.09045 1.50257C10.3826 1.4705 11.6489 1.84855 12.6882 2.57661C13.7275 3.30468 14.4801 4.34097 14.8263 5.52076L16.3304 10.6478C16.4298 10.9818 16.4456 11.3332 16.3767 11.674C16.3077 12.0148 16.1558 12.3358 15.933 12.6113V12.6113Z" fill="#374957"/>
</g>
<defs>
<clipPath id="clip0_112_709">
<rect width="19" height="18" fill="white"/>
</clipPath>
</defs>
</svg>
