<svg width="20" height="20" viewBox="0 0 20 20" fill="none" xmlns="http://www.w3.org/2000/svg">
<g clip-path="url(#clip0_139_1504)">
<path d="M15.6218 16.9448C15.6947 17.0265 15.7509 17.1218 15.787 17.2253C15.8231 17.3287 15.8384 17.4382 15.8322 17.5476C15.8259 17.6569 15.7981 17.764 15.7504 17.8626C15.7028 17.9612 15.6361 18.0495 15.5543 18.1223L14.2326 19.3007C14.0062 19.5248 13.7376 19.702 13.4424 19.822C13.1472 19.942 12.8312 20.0024 12.5126 19.9998C12.1821 20.0005 11.8548 19.9359 11.5493 19.8098C11.2439 19.6836 10.9663 19.4985 10.7326 19.2648L9.44594 18.1198C9.3642 18.0471 9.29758 17.9589 9.24991 17.8604C9.20223 17.7619 9.17443 17.6549 9.16808 17.5456C9.15527 17.325 9.23064 17.1083 9.37761 16.9432C9.52459 16.7781 9.73112 16.6781 9.95179 16.6653C10.0611 16.659 10.1705 16.6742 10.2739 16.7101C10.3772 16.7461 10.4725 16.8021 10.5543 16.8748L11.6668 17.8698V11.6665C11.6668 11.4455 11.7546 11.2335 11.9109 11.0772C12.0671 10.921 12.2791 10.8332 12.5001 10.8332C12.7211 10.8332 12.9331 10.921 13.0894 11.0772C13.2456 11.2335 13.3334 11.4455 13.3334 11.6665V17.8707L14.4459 16.8773C14.6109 16.7305 14.8274 16.6551 15.0478 16.6678C15.2683 16.6804 15.4747 16.7801 15.6218 16.9448ZM15.2968 6.13399C15.1537 6.08956 15.0238 6.01036 14.9188 5.90348C14.8139 5.79659 14.737 5.66535 14.6951 5.52149C14.2539 4.1049 13.3527 2.87598 12.1342 2.02934C10.9158 1.18269 9.44972 0.766697 7.96819 0.847235C6.48666 0.927773 5.07433 1.50024 3.95484 2.47398C2.83536 3.44772 2.07269 4.76708 1.78761 6.22316C1.4951 7.69567 1.73116 9.22417 2.45428 10.5398C1.61132 10.975 0.925867 11.6634 0.494209 12.5082C0.0625501 13.3529 -0.0936283 14.3117 0.0476115 15.2498C0.264821 16.3397 0.84829 17.3224 1.70113 18.0349C2.55396 18.7474 3.62485 19.1467 4.73595 19.1665H6.66678C6.88779 19.1665 7.09975 19.0787 7.25603 18.9224C7.41231 18.7661 7.50011 18.5542 7.50011 18.3332C7.50011 18.1121 7.41231 17.9002 7.25603 17.7439C7.09975 17.5876 6.88779 17.4998 6.66678 17.4998H4.73595C4.02424 17.4862 3.33778 17.2337 2.78677 16.7831C2.23576 16.3324 1.85218 15.7097 1.69761 15.0148C1.60712 14.4178 1.70586 13.8074 1.97996 13.2694C2.25407 12.7313 2.68979 12.2926 3.22594 12.0148C3.60811 11.8036 3.89172 11.4504 4.0154 11.0316C4.13907 10.6129 4.09287 10.1623 3.88678 9.77733C3.5632 9.1602 3.37219 8.48226 3.32599 7.78698C3.27979 7.0917 3.37943 6.39445 3.61851 5.73994C3.8576 5.08543 4.23084 4.48812 4.71431 3.98632C5.19778 3.48452 5.7808 3.08932 6.42597 2.82606C7.07113 2.5628 7.7642 2.4373 8.46072 2.45761C9.15723 2.47792 9.84181 2.64359 10.4705 2.94399C11.0993 3.24439 11.6583 3.67289 12.1117 4.20201C12.5651 4.73112 12.9029 5.34916 13.1034 6.01649C13.2268 6.41875 13.4465 6.78479 13.7435 7.08281C14.0405 7.38082 14.4058 7.60179 14.8076 7.72649C15.8962 8.05774 16.8384 8.75207 17.4771 9.69376C18.1158 10.6354 18.4124 11.7676 18.3176 12.9015C18.2549 13.7832 17.9327 14.6266 17.3918 15.3257C17.2571 15.5009 17.1975 15.7225 17.2262 15.9417C17.2549 16.1609 17.3694 16.3597 17.5447 16.4944C17.72 16.6291 17.9416 16.6887 18.1607 16.66C18.3799 16.6313 18.5787 16.5168 18.7134 16.3415C19.4476 15.3843 19.8877 14.2343 19.9801 13.0315C20.106 11.5196 19.7097 10.0102 18.8575 8.75502C18.0053 7.49985 16.7485 6.57476 15.2968 6.13399Z" fill="white"/>
</g>
<defs>
<clipPath id="clip0_139_1504">
<rect width="20" height="20" fill="white"/>
</clipPath>
</defs>
</svg>
