<svg width="24" height="24" viewBox="0 0 24 24" fill="none" xmlns="http://www.w3.org/2000/svg">
<g clip-path="url(#clip0_120_696)">
<path d="M23.9999 9.72381V18.9998C23.9984 20.3254 23.4711 21.5963 22.5337 22.5336C21.5964 23.4709 20.3255 23.9982 18.9999 23.9998H17.9999C17.7347 23.9998 17.4804 23.8945 17.2928 23.7069C17.1053 23.5194 16.9999 23.265 16.9999 22.9998C16.9999 22.7346 17.1053 22.4802 17.2928 22.2927C17.4804 22.1052 17.7347 21.9998 17.9999 21.9998H18.9999C19.7956 21.9998 20.5587 21.6837 21.1213 21.1211C21.6839 20.5585 21.9999 19.7955 21.9999 18.9998V9.72381C22 9.23273 21.8794 8.74915 21.6489 8.31553C21.4184 7.8819 21.085 7.51149 20.6779 7.23681L13.6779 2.51381C13.1833 2.17662 12.5986 1.99627 11.9999 1.99627C11.4013 1.99627 10.8166 2.17662 10.3219 2.51381L3.32194 7.23681C2.91486 7.51149 2.58144 7.8819 2.35094 8.31553C2.12044 8.74915 1.99992 9.23273 1.99994 9.72381V18.9998C1.99994 19.7955 2.31601 20.5585 2.87862 21.1211C3.44123 21.6837 4.20429 21.9998 4.99994 21.9998H5.99994C6.26516 21.9998 6.51951 22.1052 6.70705 22.2927C6.89459 22.4802 6.99994 22.7346 6.99994 22.9998C6.99994 23.265 6.89459 23.5194 6.70705 23.7069C6.51951 23.8945 6.26516 23.9998 5.99994 23.9998H4.99994C3.67435 23.9982 2.4035 23.4709 1.46616 22.5336C0.528825 21.5963 0.00153074 20.3254 -5.71181e-05 18.9998V9.72381C-0.00108199 8.90553 0.199022 8.09954 0.582647 7.37676C0.966273 6.65397 1.52166 6.03655 2.19994 5.57881L9.19994 0.854814C10.0252 0.294767 10.9996 -0.00463867 11.9969 -0.00463867C12.9943 -0.00463867 13.9687 0.294767 14.7939 0.854814L21.7939 5.57881C22.4729 6.03631 23.0291 6.65353 23.4138 7.37626C23.7984 8.09898 23.9997 8.90511 23.9999 9.72381ZM18.9999 15.0068C19.0025 15.9263 18.8226 16.8372 18.4708 17.6867C18.1189 18.5362 17.602 19.3075 16.9499 19.9558L13.4349 23.3938C13.0501 23.7664 12.5355 23.9747 11.9999 23.9747C11.4643 23.9747 10.9497 23.7664 10.5649 23.3938L7.05794 19.9638C6.24234 19.1508 5.63993 18.149 5.30413 17.0474C4.96833 15.9458 4.9095 14.7784 5.13287 13.6486C5.35624 12.5189 5.8549 11.4617 6.58465 10.5707C7.31439 9.67981 8.25268 8.98269 9.31633 8.54118C10.38 8.09967 11.5361 7.92741 12.6823 8.03967C13.8284 8.15193 14.9292 8.54523 15.887 9.18473C16.8447 9.82422 17.6299 10.6901 18.1729 11.7057C18.716 12.7213 19 13.8552 18.9999 15.0068ZM16.9999 15.0068C17 14.1846 16.7972 13.375 16.4096 12.6499C16.022 11.9247 15.4616 11.3064 14.778 10.8495C14.0943 10.3927 13.3086 10.1115 12.4903 10.0309C11.6721 9.95021 10.8465 10.0726 10.0869 10.3872C9.3272 10.7018 8.65684 11.1989 8.13517 11.8344C7.6135 12.47 7.25661 13.2244 7.09612 14.0308C6.93563 14.8372 6.97648 15.6708 7.21507 16.4576C7.45366 17.2445 7.88262 17.9603 8.46394 18.5418L11.9639 21.9638L15.5439 18.5338C16.0076 18.0712 16.3749 17.5214 16.6248 16.916C16.8747 16.3106 17.0022 15.6617 16.9999 15.0068ZM14.9999 14.9998C14.9999 15.5932 14.824 16.1732 14.4944 16.6665C14.1647 17.1599 13.6962 17.5444 13.148 17.7715C12.5998 17.9985 11.9966 18.0579 11.4147 17.9422C10.8327 17.8264 10.2982 17.5407 9.87862 17.1211C9.45907 16.7016 9.17334 16.167 9.05759 15.5851C8.94183 15.0031 9.00124 14.3999 9.2283 13.8518C9.45537 13.3036 9.83989 12.8351 10.3332 12.5054C10.8266 12.1758 11.4066 11.9998 11.9999 11.9998C12.7956 11.9998 13.5587 12.3159 14.1213 12.8785C14.6839 13.4411 14.9999 14.2042 14.9999 14.9998Z" fill="#707070"/>
</g>
<defs>
<clipPath id="clip0_120_696">
<rect width="24" height="24" fill="white"/>
</clipPath>
</defs>
</svg>
