<svg width="21" height="21" viewBox="0 0 21 21" fill="none" xmlns="http://www.w3.org/2000/svg">
<g clip-path="url(#clip0_120_1269)">
<path d="M6.125 0H3.5C2.57174 0 1.6815 0.368749 1.02513 1.02513C0.368749 1.6815 0 2.57174 0 3.5L0 6.125C0 7.05326 0.368749 7.9435 1.02513 8.59987C1.6815 9.25625 2.57174 9.625 3.5 9.625H6.125C7.05326 9.625 7.9435 9.25625 8.59987 8.59987C9.25625 7.9435 9.625 7.05326 9.625 6.125V3.5C9.625 2.57174 9.25625 1.6815 8.59987 1.02513C7.9435 0.368749 7.05326 0 6.125 0V0ZM7.875 6.125C7.875 6.58913 7.69063 7.03425 7.36244 7.36244C7.03425 7.69063 6.58913 7.875 6.125 7.875H3.5C3.03587 7.875 2.59075 7.69063 2.26256 7.36244C1.93437 7.03425 1.75 6.58913 1.75 6.125V3.5C1.75 3.03587 1.93437 2.59075 2.26256 2.26256C2.59075 1.93437 3.03587 1.75 3.5 1.75H6.125C6.58913 1.75 7.03425 1.93437 7.36244 2.26256C7.69063 2.59075 7.875 3.03587 7.875 3.5V6.125Z" fill="white"/>
<path d="M17.4999 0H14.8749C13.9466 0 13.0564 0.368749 12.4 1.02513C11.7436 1.6815 11.3749 2.57174 11.3749 3.5V6.125C11.3749 7.05326 11.7436 7.9435 12.4 8.59988C13.0564 9.25626 13.9466 9.62501 14.8749 9.62501H17.4999C18.4281 9.62501 19.3184 9.25626 19.9747 8.59988C20.6311 7.9435 20.9999 7.05326 20.9999 6.125V3.5C20.9999 2.57174 20.6311 1.6815 19.9747 1.02513C19.3184 0.368749 18.4281 0 17.4999 0V0ZM19.2499 6.125C19.2499 6.58913 19.0655 7.03425 18.7373 7.36244C18.4091 7.69063 17.964 7.87501 17.4999 7.87501H14.8749C14.4107 7.87501 13.9656 7.69063 13.6374 7.36244C13.3092 7.03425 13.1249 6.58913 13.1249 6.125V3.5C13.1249 3.03587 13.3092 2.59075 13.6374 2.26256C13.9656 1.93438 14.4107 1.75 14.8749 1.75H17.4999C17.964 1.75 18.4091 1.93438 18.7373 2.26256C19.0655 2.59075 19.2499 3.03587 19.2499 3.5V6.125Z" fill="white"/>
<path d="M6.125 11.375H3.5C2.57174 11.375 1.6815 11.7437 1.02513 12.4001C0.368749 13.0565 0 13.9467 0 14.875L0 17.5C0 18.4283 0.368749 19.3185 1.02513 19.9749C1.6815 20.6313 2.57174 21 3.5 21H6.125C7.05326 21 7.9435 20.6313 8.59987 19.9749C9.25625 19.3185 9.625 18.4283 9.625 17.5V14.875C9.625 13.9467 9.25625 13.0565 8.59987 12.4001C7.9435 11.7437 7.05326 11.375 6.125 11.375ZM7.875 17.5C7.875 17.9641 7.69063 18.4093 7.36244 18.7374C7.03425 19.0656 6.58913 19.25 6.125 19.25H3.5C3.03587 19.25 2.59075 19.0656 2.26256 18.7374C1.93437 18.4093 1.75 17.9641 1.75 17.5V14.875C1.75 14.4109 1.93437 13.9658 2.26256 13.6376C2.59075 13.3094 3.03587 13.125 3.5 13.125H6.125C6.58913 13.125 7.03425 13.3094 7.36244 13.6376C7.69063 13.9658 7.875 14.4109 7.875 14.875V17.5Z" fill="white"/>
<path d="M17.4999 11.375H14.8749C13.9466 11.375 13.0564 11.7437 12.4 12.4001C11.7436 13.0565 11.3749 13.9467 11.3749 14.875V17.5C11.3749 18.4283 11.7436 19.3185 12.4 19.9749C13.0564 20.6313 13.9466 21 14.8749 21H17.4999C18.4281 21 19.3184 20.6313 19.9747 19.9749C20.6311 19.3185 20.9999 18.4283 20.9999 17.5V14.875C20.9999 13.9467 20.6311 13.0565 19.9747 12.4001C19.3184 11.7437 18.4281 11.375 17.4999 11.375ZM19.2499 17.5C19.2499 17.9641 19.0655 18.4093 18.7373 18.7374C18.4091 19.0656 17.964 19.25 17.4999 19.25H14.8749C14.4107 19.25 13.9656 19.0656 13.6374 18.7374C13.3092 18.4093 13.1249 17.9641 13.1249 17.5V14.875C13.1249 14.4109 13.3092 13.9658 13.6374 13.6376C13.9656 13.3094 14.4107 13.125 14.8749 13.125H17.4999C17.964 13.125 18.4091 13.3094 18.7373 13.6376C19.0655 13.9658 19.2499 14.4109 19.2499 14.875V17.5Z" fill="white"/>
</g>
<defs>
<clipPath id="clip0_120_1269">
<rect width="21" height="21" fill="white"/>
</clipPath>
</defs>
</svg>
