<svg width="22" height="22" viewBox="0 0 22 22" fill="none" xmlns="http://www.w3.org/2000/svg">
<g clip-path="url(#clip0_120_995)">
<path d="M15.7391 22.0001C15.6185 22.0008 15.4989 21.9776 15.3872 21.932C15.2755 21.8864 15.1739 21.8192 15.0883 21.7342L7.59909 14.2451C7.17226 13.8193 6.83362 13.3135 6.60256 12.7567C6.3715 12.1999 6.25256 11.6029 6.25256 11.0001C6.25256 10.3972 6.3715 9.80027 6.60256 9.24344C6.83362 8.68661 7.17226 8.18083 7.59909 7.75508L15.0883 0.265922C15.1737 0.180453 15.2752 0.112656 15.3869 0.0664004C15.4985 0.0201452 15.6182 -0.00366211 15.7391 -0.00366211C15.86 -0.00366211 15.9796 0.0201452 16.0913 0.0664004C16.203 0.112656 16.3045 0.180453 16.3899 0.265922C16.4754 0.35139 16.5432 0.452856 16.5894 0.564526C16.6357 0.676196 16.6595 0.795883 16.6595 0.916754C16.6595 1.03762 16.6357 1.15731 16.5894 1.26898C16.5432 1.38065 16.4754 1.48212 16.3899 1.56759L8.90076 9.05674C8.38577 9.57237 8.09651 10.2713 8.09651 11.0001C8.09651 11.7288 8.38577 12.4278 8.90076 12.9434L16.3899 20.4326C16.4758 20.5178 16.544 20.6192 16.5906 20.7309C16.6371 20.8426 16.6611 20.9624 16.6611 21.0834C16.6611 21.2044 16.6371 21.3242 16.5906 21.4359C16.544 21.5476 16.4758 21.649 16.3899 21.7342C16.3043 21.8192 16.2027 21.8864 16.091 21.932C15.9793 21.9776 15.8597 22.0008 15.7391 22.0001Z" fill="#374957"/>
</g>
<defs>
<clipPath id="clip0_120_995">
<rect width="22" height="22" fill="white"/>
</clipPath>
</defs>
</svg>
