<svg width="24" height="24" viewBox="0 0 24 24" fill="none" xmlns="http://www.w3.org/2000/svg">
<path d="M14.9999 17.0001C14.9999 17.2653 14.8945 17.5196 14.707 17.7072C14.5195 17.8947 14.2651 18.0001 13.9999 18.0001H9.9999C9.73468 18.0001 9.48033 17.8947 9.29279 17.7072C9.10526 17.5196 8.9999 17.2653 8.9999 17.0001C8.9999 16.7349 9.10526 16.4805 9.29279 16.293C9.48033 16.1054 9.73468 16.0001 9.9999 16.0001H13.9999C14.2651 16.0001 14.5195 16.1054 14.707 16.293C14.8945 16.4805 14.9999 16.7349 14.9999 17.0001ZM14.7069 7.29308C14.5194 7.10561 14.2651 7.00029 13.9999 7.00029C13.7347 7.00029 13.4804 7.10561 13.2929 7.29308L11.9999 8.58608L10.7069 7.29308C10.6147 7.19757 10.5043 7.12139 10.3823 7.06898C10.2603 7.01657 10.1291 6.98898 9.9963 6.98783C9.86352 6.98668 9.73184 7.01198 9.60894 7.06226C9.48605 7.11254 9.3744 7.18679 9.2805 7.28069C9.18661 7.37458 9.11236 7.48623 9.06208 7.60913C9.0118 7.73202 8.98649 7.8637 8.98765 7.99648C8.9888 8.12926 9.01639 8.26048 9.0688 8.38248C9.12121 8.50449 9.19739 8.61483 9.2929 8.70708L10.5859 10.0001L9.2929 11.2931C9.19739 11.3853 9.12121 11.4957 9.0688 11.6177C9.01639 11.7397 8.9888 11.8709 8.98765 12.0037C8.98649 12.1365 9.0118 12.2681 9.06208 12.391C9.11236 12.5139 9.18661 12.6256 9.2805 12.7195C9.3744 12.8134 9.48605 12.8876 9.60894 12.9379C9.73184 12.9882 9.86352 13.0135 9.9963 13.0123C10.1291 13.0112 10.2603 12.9836 10.3823 12.9312C10.5043 12.8788 10.6147 12.8026 10.7069 12.7071L11.9999 11.4141L13.2929 12.7071C13.4815 12.8892 13.7341 12.99 13.9963 12.9877C14.2585 12.9855 14.5093 12.8803 14.6947 12.6949C14.8801 12.5095 14.9853 12.2587 14.9876 11.9965C14.9899 11.7343 14.8891 11.4817 14.7069 11.2931L13.4139 10.0001L14.7069 8.70708C14.8944 8.51955 14.9997 8.26524 14.9997 8.00008C14.9997 7.73492 14.8944 7.48061 14.7069 7.29308ZM21.9999 16.0001H17.9999C17.7347 16.0001 17.4803 16.1054 17.2928 16.293C17.1053 16.4805 16.9999 16.7349 16.9999 17.0001C16.9999 17.2653 17.1053 17.5196 17.2928 17.7072C17.4803 17.8947 17.7347 18.0001 17.9999 18.0001H21.9999C22.2651 18.0001 22.5195 17.8947 22.707 17.7072C22.8945 17.5196 22.9999 17.2653 22.9999 17.0001C22.9999 16.7349 22.8945 16.4805 22.707 16.293C22.5195 16.1054 22.2651 16.0001 21.9999 16.0001ZM21.4139 10.0001L22.7069 8.70708C22.8024 8.61483 22.8786 8.50449 22.931 8.38248C22.9834 8.26048 23.011 8.12926 23.0121 7.99648C23.0133 7.8637 22.988 7.73202 22.9377 7.60913C22.8874 7.48623 22.8132 7.37458 22.7193 7.28069C22.6254 7.18679 22.5137 7.11254 22.3909 7.06226C22.268 7.01198 22.1363 6.98668 22.0035 6.98783C21.8707 6.98898 21.7395 7.01657 21.6175 7.06898C21.4955 7.12139 21.3851 7.19757 21.2929 7.29308L19.9999 8.58608L18.7069 7.29308C18.6147 7.19757 18.5043 7.12139 18.3823 7.06898C18.2603 7.01657 18.1291 6.98898 17.9963 6.98783C17.8635 6.98668 17.7318 7.01198 17.6089 7.06226C17.486 7.11254 17.3744 7.18679 17.2805 7.28069C17.1866 7.37458 17.1124 7.48623 17.0621 7.60913C17.0118 7.73202 16.9865 7.8637 16.9876 7.99648C16.9888 8.12926 17.0164 8.26048 17.0688 8.38248C17.1212 8.50449 17.1974 8.61483 17.2929 8.70708L18.5859 10.0001L17.2929 11.2931C17.1974 11.3853 17.1212 11.4957 17.0688 11.6177C17.0164 11.7397 16.9888 11.8709 16.9876 12.0037C16.9865 12.1365 17.0118 12.2681 17.0621 12.391C17.1124 12.5139 17.1866 12.6256 17.2805 12.7195C17.3744 12.8134 17.486 12.8876 17.6089 12.9379C17.7318 12.9882 17.8635 13.0135 17.9963 13.0123C18.1291 13.0112 18.2603 12.9836 18.3823 12.9312C18.5043 12.8788 18.6147 12.8026 18.7069 12.7071L19.9999 11.4141L21.2929 12.7071C21.4815 12.8892 21.7341 12.99 21.9963 12.9877C22.2585 12.9855 22.5093 12.8803 22.6947 12.6949C22.8801 12.5095 22.9853 12.2587 22.9876 11.9965C22.9899 11.7343 22.8891 11.4817 22.7069 11.2931L21.4139 10.0001ZM5.9999 16.0001H1.9999C1.73468 16.0001 1.48033 16.1054 1.29279 16.293C1.10525 16.4805 0.999898 16.7349 0.999898 17.0001C0.999898 17.2653 1.10525 17.5196 1.29279 17.7072C1.48033 17.8947 1.73468 18.0001 1.9999 18.0001H5.9999C6.26511 18.0001 6.51947 17.8947 6.707 17.7072C6.89454 17.5196 6.9999 17.2653 6.9999 17.0001C6.9999 16.7349 6.89454 16.4805 6.707 16.293C6.51947 16.1054 6.26511 16.0001 5.9999 16.0001ZM6.7069 7.29308C6.51937 7.10561 6.26506 7.00029 5.9999 7.00029C5.73473 7.00029 5.48043 7.10561 5.2929 7.29308L3.9999 8.58608L2.7069 7.29308C2.61465 7.19757 2.50431 7.12139 2.3823 7.06898C2.2603 7.01657 2.12908 6.98898 1.9963 6.98783C1.86352 6.98668 1.73184 7.01198 1.60894 7.06226C1.48605 7.11254 1.3744 7.18679 1.2805 7.28069C1.18661 7.37458 1.11236 7.48623 1.06208 7.60913C1.0118 7.73202 0.986494 7.8637 0.987648 7.99648C0.988801 8.12926 1.01639 8.26048 1.0688 8.38248C1.12121 8.50449 1.19739 8.61483 1.2929 8.70708L2.5859 10.0001L1.2929 11.2931C1.19739 11.3853 1.12121 11.4957 1.0688 11.6177C1.01639 11.7397 0.988801 11.8709 0.987648 12.0037C0.986494 12.1365 1.0118 12.2681 1.06208 12.391C1.11236 12.5139 1.18661 12.6256 1.2805 12.7195C1.3744 12.8134 1.48605 12.8876 1.60894 12.9379C1.73184 12.9882 1.86352 13.0135 1.9963 13.0123C2.12908 13.0112 2.2603 12.9836 2.3823 12.9312C2.50431 12.8788 2.61465 12.8026 2.7069 12.7071L3.9999 11.4141L5.2929 12.7071C5.38515 12.8026 5.49549 12.8788 5.61749 12.9312C5.7395 12.9836 5.87072 13.0112 6.0035 13.0123C6.13628 13.0135 6.26796 12.9882 6.39085 12.9379C6.51375 12.8876 6.6254 12.8134 6.71929 12.7195C6.81319 12.6256 6.88744 12.5139 6.93772 12.391C6.988 12.2681 7.0133 12.1365 7.01215 12.0037C7.01099 11.8709 6.98341 11.7397 6.931 11.6177C6.87859 11.4957 6.80241 11.3853 6.7069 11.2931L5.4139 10.0001L6.7069 8.70708C6.89437 8.51955 6.99968 8.26524 6.99968 8.00008C6.99968 7.73492 6.89437 7.48061 6.7069 7.29308Z" fill="white"/>
</svg>
