<svg width="20" height="20" viewBox="0 0 20 20" fill="none" xmlns="http://www.w3.org/2000/svg">
<g clip-path="url(#clip0_139_1720)">
<path d="M14.9999 15.8333C15.1647 15.8332 15.3258 15.7844 15.4628 15.6928C15.5998 15.6012 15.7066 15.4711 15.7697 15.3188C15.8327 15.1666 15.8492 14.9991 15.8171 14.8374C15.785 14.6758 15.7056 14.5273 15.5891 14.4108L10.4458 9.26828C9.66441 8.48715 8.6048 8.04834 7.49995 8.04834C6.39509 8.04834 5.33548 8.48715 4.55411 9.26828L2.74411 11.0775C2.59231 11.2346 2.50832 11.4451 2.51022 11.6636C2.51212 11.8821 2.59976 12.0911 2.75426 12.2456C2.90877 12.4001 3.11778 12.4878 3.33628 12.4897C3.55477 12.4916 3.76528 12.4076 3.92244 12.2558L5.73245 10.4466C6.20846 9.99173 6.84153 9.73788 7.49995 9.73788C8.15836 9.73788 8.79143 9.99173 9.26745 10.4466L14.4108 15.5891C14.567 15.7454 14.779 15.8332 14.9999 15.8333Z" fill="#141414"/>
<path d="M13.3335 8.74984C13.9103 8.74984 14.4742 8.57878 14.9539 8.25829C15.4335 7.9378 15.8073 7.48228 16.0281 6.94933C16.2489 6.41638 16.3066 5.82994 16.1941 5.26416C16.0815 4.69838 15.8038 4.17868 15.3958 3.77078C14.9879 3.36287 14.4682 3.08509 13.9025 2.97255C13.3367 2.86001 12.7502 2.91777 12.2173 3.13852C11.6843 3.35928 11.2288 3.73312 10.9083 4.21276C10.5878 4.6924 10.4168 5.25631 10.4168 5.83317C10.4168 6.60672 10.7241 7.34859 11.2711 7.89557C11.818 8.44255 12.5599 8.74984 13.3335 8.74984V8.74984ZM13.3335 4.58317C13.5807 4.58317 13.8224 4.65648 14.0279 4.79384C14.2335 4.93119 14.3937 5.12641 14.4883 5.35482C14.5829 5.58323 14.6077 5.83456 14.5594 6.07703C14.5112 6.31951 14.3922 6.54224 14.2173 6.71706C14.0425 6.89187 13.8198 7.01092 13.5773 7.05915C13.3348 7.10739 13.0835 7.08263 12.8551 6.98802C12.6267 6.89341 12.4315 6.7332 12.2941 6.52763C12.1568 6.32207 12.0835 6.0804 12.0835 5.83317C12.0835 5.50165 12.2151 5.18371 12.4496 4.94929C12.684 4.71487 13.0019 4.58317 13.3335 4.58317V4.58317Z" fill="#141414"/>
<path d="M19.1665 13.3335C18.9455 13.3335 18.7336 13.4213 18.5773 13.5776C18.421 13.7339 18.3332 13.9458 18.3332 14.1668V15.8335C18.3332 16.4965 18.0698 17.1324 17.601 17.6013C17.1321 18.0701 16.4962 18.3335 15.8332 18.3335H14.1665C13.9455 18.3335 13.7336 18.4213 13.5773 18.5776C13.421 18.7338 13.3332 18.9458 13.3332 19.1668C13.3332 19.3878 13.421 19.5998 13.5773 19.7561C13.7336 19.9124 13.9455 20.0001 14.1665 20.0001H15.8332C16.9379 19.9988 17.9969 19.5594 18.778 18.7783C19.5591 17.9972 19.9985 16.9382 19.9999 15.8335V14.1668C19.9999 13.9458 19.9121 13.7339 19.7558 13.5776C19.5995 13.4213 19.3875 13.3335 19.1665 13.3335Z" fill="#141414"/>
<path d="M0.833333 6.66667C1.05435 6.66667 1.26631 6.57887 1.42259 6.42259C1.57887 6.26631 1.66667 6.05435 1.66667 5.83333V4.16667C1.66667 3.50363 1.93006 2.86774 2.3989 2.3989C2.86774 1.93006 3.50363 1.66667 4.16667 1.66667H5.83333C6.05435 1.66667 6.26631 1.57887 6.42259 1.42259C6.57887 1.26631 6.66667 1.05435 6.66667 0.833333C6.66667 0.61232 6.57887 0.400358 6.42259 0.244078C6.26631 0.0877974 6.05435 0 5.83333 0L4.16667 0C3.062 0.00132321 2.00296 0.440735 1.22185 1.22185C0.440735 2.00296 0.00132321 3.062 0 4.16667L0 5.83333C0 6.05435 0.0877974 6.26631 0.244078 6.42259C0.400358 6.57887 0.61232 6.66667 0.833333 6.66667Z" fill="#141414"/>
<path d="M5.83333 18.3335H4.16666C3.50362 18.3335 2.86773 18.0701 2.39889 17.6013C1.93005 17.1324 1.66666 16.4965 1.66666 15.8335V14.1668C1.66666 13.9458 1.57886 13.7339 1.42258 13.5776C1.2663 13.4213 1.05434 13.3335 0.833328 13.3335C0.612314 13.3335 0.400352 13.4213 0.244072 13.5776C0.0877917 13.7339 -5.72205e-06 13.9458 -5.72205e-06 14.1668L-5.72205e-06 15.8335C0.00131749 16.9382 0.440729 17.9972 1.22184 18.7783C2.00296 19.5594 3.062 19.9988 4.16666 20.0001H5.83333C6.05434 20.0001 6.2663 19.9124 6.42258 19.7561C6.57886 19.5998 6.66666 19.3878 6.66666 19.1668C6.66666 18.9458 6.57886 18.7338 6.42258 18.5776C6.2663 18.4213 6.05434 18.3335 5.83333 18.3335Z" fill="#141414"/>
<path d="M15.8332 0H14.1665C13.9455 0 13.7336 0.0877974 13.5773 0.244078C13.421 0.400358 13.3332 0.61232 13.3332 0.833333C13.3332 1.05435 13.421 1.26631 13.5773 1.42259C13.7336 1.57887 13.9455 1.66667 14.1665 1.66667H15.8332C16.4962 1.66667 17.1321 1.93006 17.601 2.3989C18.0698 2.86774 18.3332 3.50363 18.3332 4.16667V5.83333C18.3332 6.05435 18.421 6.26631 18.5773 6.42259C18.7336 6.57887 18.9455 6.66667 19.1665 6.66667C19.3875 6.66667 19.5995 6.57887 19.7558 6.42259C19.9121 6.26631 19.9999 6.05435 19.9999 5.83333V4.16667C19.9985 3.062 19.5591 2.00296 18.778 1.22185C17.9969 0.440735 16.9379 0.00132321 15.8332 0V0Z" fill="#141414"/>
</g>
<defs>
<clipPath id="clip0_139_1720">
<rect width="20" height="20" fill="white"/>
</clipPath>
</defs>
</svg>
