<svg width="15" height="15" viewBox="0 0 15 15" fill="none" xmlns="http://www.w3.org/2000/svg">
<g clip-path="url(#clip0_139_1659)">
<path d="M0.624928 15.0003C0.790675 15.0003 0.94962 14.9344 1.0668 14.8172L5.20368 10.6803L5.98368 11.4878C6.57157 12.109 7.38184 12.4718 8.2368 12.4965C8.52182 12.4974 8.80487 12.4494 9.07368 12.3547C9.48902 12.2117 9.85391 11.9512 10.1241 11.6048C10.3942 11.2584 10.558 10.8411 10.5956 10.4034C10.6634 9.76957 10.6164 9.1287 10.4568 8.51154L10.3231 7.86029C10.2977 7.75614 10.2996 7.64723 10.3285 7.54402C10.3574 7.44081 10.4123 7.34676 10.4881 7.27091L11.4799 6.27841C11.5191 6.23914 11.572 6.21671 11.6274 6.21591C11.6469 6.21229 11.667 6.21418 11.6854 6.22136C11.7038 6.22853 11.7199 6.24072 11.7318 6.25654C12.0457 6.58945 12.4681 6.79951 12.923 6.849C13.3779 6.89849 13.8355 6.78416 14.2137 6.52654C14.4356 6.36834 14.6203 6.16368 14.7551 5.92679C14.8898 5.68991 14.9713 5.4265 14.9938 5.15491C15.0164 4.88333 14.9795 4.61009 14.8856 4.35423C14.7918 4.09837 14.6433 3.86604 14.4506 3.67341L11.3749 0.596538C11.0591 0.272851 10.6396 0.0704653 10.1897 0.0247662C9.73977 -0.020933 9.28812 0.0929618 8.91368 0.346538C8.69173 0.504683 8.50692 0.709311 8.37213 0.94617C8.23733 1.18303 8.15579 1.44643 8.13318 1.71802C8.11058 1.9896 8.14745 2.26286 8.24122 2.51874C8.335 2.77463 8.48343 3.007 8.67618 3.19966L8.72368 3.24716C8.75948 3.28322 8.77957 3.33197 8.77957 3.38279C8.77957 3.4336 8.75948 3.48235 8.72368 3.51841L7.72368 4.51841C7.64697 4.59496 7.55166 4.65025 7.44713 4.67885C7.3426 4.70745 7.23243 4.70838 7.12743 4.68154L6.6168 4.55091C5.98871 4.38688 5.33617 4.33754 4.69055 4.40529C4.23265 4.45271 3.79785 4.63006 3.43741 4.91642C3.07697 5.20278 2.80591 5.58622 2.65618 6.02154C2.49278 6.46888 2.46056 6.9536 2.56331 7.41863C2.66606 7.88367 2.89951 8.30968 3.23618 8.64654L4.33493 9.78404L0.183053 13.9334C0.095672 14.0208 0.0361679 14.1322 0.0120632 14.2534C-0.0120415 14.3746 0.000335352 14.5003 0.0476291 14.6144C0.0949229 14.7286 0.17501 14.8262 0.277766 14.8949C0.380522 14.9636 0.501334 15.0003 0.624928 15.0003ZM3.8343 6.43779C3.90473 6.22486 4.03537 6.03692 4.21041 5.89671C4.38546 5.7565 4.59739 5.67003 4.82055 5.64779C4.96444 5.63281 5.10901 5.6253 5.25368 5.62529C5.60825 5.62531 5.96135 5.67089 6.3043 5.76091L6.81868 5.89216C7.13381 5.97189 7.46423 5.96861 7.77772 5.88262C8.09121 5.79664 8.37707 5.63089 8.60743 5.40154L9.60743 4.40154C9.87726 4.13091 10.0288 3.76433 10.0288 3.38216C10.0288 3 9.87726 2.63342 9.60743 2.36279L9.55993 2.31529C9.49521 2.25073 9.44545 2.17276 9.41415 2.08687C9.38284 2.00099 9.37075 1.90929 9.37874 1.81823C9.38672 1.72716 9.41459 1.63896 9.46036 1.55984C9.50614 1.48072 9.56872 1.4126 9.64368 1.36029C9.77704 1.27955 9.93416 1.24728 10.0886 1.26891C10.2429 1.29055 10.3851 1.36476 10.4912 1.47904L13.5687 4.55654C13.6334 4.6211 13.6832 4.69907 13.7145 4.78495C13.7458 4.87083 13.7579 4.96254 13.7499 5.0536C13.7419 5.14466 13.714 5.23286 13.6682 5.31198C13.6225 5.39111 13.5599 5.45923 13.4849 5.51154C13.3501 5.59338 13.191 5.62567 13.0349 5.60285C12.8789 5.58004 12.7357 5.50354 12.6299 5.38654C12.5013 5.25395 12.3475 5.14847 12.1774 5.07633C12.0074 5.00419 11.8246 4.96686 11.6399 4.96654C11.2503 4.96831 10.8766 5.12163 10.5981 5.39404L9.6068 6.38591C9.38172 6.61115 9.21771 6.89 9.13023 7.19618C9.04275 7.50235 9.03469 7.82576 9.1068 8.13591L9.24368 8.79716C9.36979 9.2793 9.40811 9.7802 9.3568 10.2759C9.34186 10.4781 9.26785 10.6714 9.14395 10.8319C9.02006 10.9923 8.85174 11.1128 8.65993 11.1784C8.34021 11.2625 8.00322 11.2542 7.68798 11.1547C7.37274 11.0551 7.09214 10.8683 6.87868 10.6159L4.12868 7.77216C3.9572 7.60115 3.83833 7.38456 3.78616 7.14807C3.73399 6.91157 3.7507 6.66508 3.8343 6.43779V6.43779Z" fill="white"/>
</g>
<defs>
<clipPath id="clip0_139_1659">
<rect width="15" height="15" fill="white"/>
</clipPath>
</defs>
</svg>
