<svg width="36" height="36" viewBox="0 0 36 36" fill="none" xmlns="http://www.w3.org/2000/svg">
<path d="M6.08673 7.7112C6.08673 6.81446 6.81452 6.08667 7.71126 6.08667H14.2094C15.1061 6.08667 15.8339 6.81446 15.8339 7.7112V14.2093C15.8339 15.1061 15.1061 15.8339 14.2094 15.8339H7.71126C7.28041 15.8339 6.86721 15.6627 6.56255 15.3581C6.25789 15.0534 6.08673 14.6402 6.08673 14.2093V7.7112ZM6.08673 21.7905C6.08673 20.8938 6.81452 20.166 7.71126 20.166H14.2094C15.1061 20.166 15.8339 20.8938 15.8339 21.7905V28.2886C15.8339 29.1854 15.1061 29.9132 14.2094 29.9132H7.71126C7.28041 29.9132 6.86721 29.742 6.56255 29.4373C6.25789 29.1327 6.08673 28.7195 6.08673 28.2886V21.7905ZM20.166 7.7112C20.166 6.81446 20.8938 6.08667 21.7906 6.08667H28.2887C29.1854 6.08667 29.9132 6.81446 29.9132 7.7112V14.2093C29.9132 15.1061 29.1854 15.8339 28.2887 15.8339H21.7906C21.3597 15.8339 20.9465 15.6627 20.6418 15.3581C20.3372 15.0534 20.166 14.6402 20.166 14.2093V7.7112Z" stroke="white" stroke-width="1.5" stroke-linecap="round" stroke-linejoin="round"/>
<path d="M10.4188 10.4189H11.5018V11.502H10.4188V10.4189ZM10.4188 24.4982H11.5018V25.5813H10.4188V24.4982ZM24.4981 10.4189H25.5811V11.502H24.4981V10.4189ZM20.166 20.1661H21.249V21.2492H20.166V20.1661ZM20.166 28.8303H21.249V29.9133H20.166V28.8303ZM28.8302 20.1661H29.9132V21.2492H28.8302V20.1661ZM28.8302 28.8303H29.9132V29.9133H28.8302V28.8303ZM24.4981 24.4982H25.5811V25.5813H24.4981V24.4982Z" stroke="white" stroke-width="1.5" stroke-linecap="round" stroke-linejoin="round"/>
</svg>
