<svg width="20" height="20" viewBox="0 0 20 20" fill="none" xmlns="http://www.w3.org/2000/svg">
<g clip-path="url(#clip0_121_388)">
<path d="M16.1109 12.2232C15.4808 12.2237 14.8604 12.3775 14.303 12.6714C13.7456 12.9652 13.2682 13.3903 12.9118 13.9099L7.48759 11.4607C7.87285 10.5304 7.87434 9.48543 7.49175 8.55403L12.9084 6.09236C13.4366 6.85632 14.2212 7.40566 15.1197 7.64073C16.0183 7.8758 16.9714 7.78103 17.806 7.37361C18.6407 6.96619 19.3017 6.27311 19.6691 5.42008C20.0366 4.56706 20.0861 3.61059 19.8087 2.72417C19.5314 1.83776 18.9455 1.08011 18.1574 0.588657C17.3692 0.0972062 16.4311 -0.0954951 15.513 0.0455079C14.595 0.186511 13.7579 0.651879 13.1536 1.3572C12.5493 2.06252 12.2178 2.96107 12.2193 3.88986C12.2228 4.10969 12.2451 4.32882 12.2859 4.54486L6.52759 7.16153C5.97454 6.64338 5.28218 6.29806 4.53556 6.168C3.78895 6.03793 3.02061 6.12879 2.32493 6.42941C1.62924 6.73003 1.03652 7.22731 0.619583 7.86016C0.202642 8.49302 -0.0203592 9.23388 -0.0220243 9.99173C-0.0236894 10.7496 0.196054 11.4914 0.61021 12.1261C1.02437 12.7608 1.6149 13.2607 2.30925 13.5643C3.00361 13.868 3.77154 13.9622 4.51872 13.8355C5.26589 13.7087 5.95976 13.3664 6.51509 12.8507L12.2884 15.4574C12.2483 15.6732 12.2263 15.892 12.2226 16.1115C12.2224 16.8808 12.4504 17.6328 12.8777 18.2725C13.305 18.9122 13.9124 19.4109 14.623 19.7053C15.3337 19.9998 16.1158 20.0769 16.8703 19.9268C17.6248 19.7768 18.3179 19.4064 18.8618 18.8624C19.4058 18.3185 19.7762 17.6254 19.9262 16.8709C20.0763 16.1164 19.9992 15.3343 19.7047 14.6237C19.4102 13.913 18.9116 13.3056 18.2719 12.8783C17.6322 12.451 16.8802 12.223 16.1109 12.2232ZM16.1109 1.66736C16.5505 1.6672 16.9803 1.7974 17.3459 2.04151C17.7115 2.28563 17.9965 2.63268 18.1648 3.03877C18.3332 3.44486 18.3773 3.89176 18.2917 4.32294C18.206 4.75412 17.9944 5.15021 17.6836 5.46111C17.3728 5.77202 16.9768 5.98377 16.5456 6.0696C16.1145 6.15542 15.6676 6.11145 15.2614 5.94326C14.8553 5.77507 14.5081 5.49021 14.2639 5.1247C14.0196 4.7592 13.8893 4.32947 13.8893 3.88986C13.8897 3.3007 14.1239 2.73578 14.5404 2.3191C14.9569 1.90242 15.5218 1.66802 16.1109 1.66736ZM3.88925 12.2232C3.44965 12.2234 3.01987 12.0932 2.65427 11.849C2.28867 11.6049 2.00368 11.2579 1.83534 10.8518C1.66699 10.4457 1.62286 9.9988 1.70852 9.56762C1.79418 9.13644 2.00579 8.74035 2.31658 8.42944C2.62737 8.11854 3.02338 7.90678 3.45452 7.82096C3.88567 7.73514 4.33258 7.7791 4.73874 7.94729C5.1449 8.11548 5.49205 8.40035 5.7363 8.76585C5.98055 9.13136 6.11092 9.56109 6.11092 10.0007C6.11026 10.5898 5.876 11.1546 5.45953 11.5712C5.04305 11.9878 4.47835 12.2223 3.88925 12.2232ZM16.1109 18.334C15.6714 18.334 15.2417 18.2037 14.8762 17.9595C14.5107 17.7153 14.2258 17.3682 14.0576 16.962C13.8894 16.5559 13.8454 16.1091 13.9311 15.6779C14.0169 15.2468 14.2286 14.8508 14.5394 14.54C14.8502 14.2292 15.2462 14.0175 15.6773 13.9317C16.1085 13.846 16.5553 13.89 16.9614 14.0582C17.3675 14.2264 17.7146 14.5113 17.9589 14.8768C18.2031 15.2423 18.3334 15.672 18.3334 16.1115C18.333 16.7008 18.0987 17.2659 17.682 17.6826C17.2653 18.0993 16.7002 18.3336 16.1109 18.334Z" fill="white"/>
</g>
<defs>
<clipPath id="clip0_121_388">
<rect width="20" height="20" fill="white"/>
</clipPath>
</defs>
</svg>
