<svg width="21" height="21" viewBox="0 0 21 21" fill="none" xmlns="http://www.w3.org/2000/svg">
<g clip-path="url(#clip0_120_1229)">
<path d="M10.5 10.5C11.5384 10.5 12.5534 10.1921 13.4167 9.61522C14.2801 9.03834 14.953 8.2184 15.3504 7.25909C15.7477 6.29978 15.8517 5.24418 15.6491 4.22578C15.4466 3.20738 14.9465 2.27192 14.2123 1.53769C13.4781 0.803466 12.5426 0.303452 11.5242 0.10088C10.5058 -0.101693 9.45022 0.00227475 8.49091 0.399635C7.5316 0.796995 6.71166 1.4699 6.13478 2.33326C5.55791 3.19662 5.25 4.21165 5.25 5.25C5.25139 6.64196 5.80496 7.97651 6.78922 8.96078C7.77349 9.94504 9.10804 10.4986 10.5 10.5ZM10.5 1.75C11.1922 1.75 11.8689 1.95527 12.4445 2.33986C13.0201 2.72444 13.4687 3.27107 13.7336 3.91061C13.9985 4.55015 14.0678 5.25389 13.9327 5.93282C13.7977 6.61175 13.4644 7.23539 12.9749 7.72488C12.4854 8.21436 11.8618 8.5477 11.1828 8.68275C10.5039 8.8178 9.80015 8.74849 9.16061 8.48358C8.52107 8.21867 7.97444 7.77007 7.58986 7.1945C7.20527 6.61893 7 5.94224 7 5.25C7 4.32174 7.36875 3.43151 8.02513 2.77513C8.6815 2.11875 9.57174 1.75 10.5 1.75V1.75Z" fill="white"/>
<path d="M10.5 12.2505C8.41213 12.2528 6.41044 13.0832 4.93409 14.5596C3.45774 16.0359 2.62732 18.0376 2.625 20.1255C2.625 20.3576 2.71719 20.5801 2.88128 20.7442C3.04538 20.9083 3.26794 21.0005 3.5 21.0005C3.73206 21.0005 3.95462 20.9083 4.11872 20.7442C4.28281 20.5801 4.375 20.3576 4.375 20.1255C4.375 18.501 5.02031 16.9431 6.16897 15.7945C7.31763 14.6458 8.87555 14.0005 10.5 14.0005C12.1245 14.0005 13.6824 14.6458 14.831 15.7945C15.9797 16.9431 16.625 18.501 16.625 20.1255C16.625 20.3576 16.7172 20.5801 16.8813 20.7442C17.0454 20.9083 17.2679 21.0005 17.5 21.0005C17.7321 21.0005 17.9546 20.9083 18.1187 20.7442C18.2828 20.5801 18.375 20.3576 18.375 20.1255C18.3727 18.0376 17.5423 16.0359 16.0659 14.5596C14.5896 13.0832 12.5879 12.2528 10.5 12.2505V12.2505Z" fill="white"/>
</g>
<defs>
<clipPath id="clip0_120_1229">
<rect width="21" height="21" fill="white"/>
</clipPath>
</defs>
</svg>
